<?xml version="1.0" encoding="iso-8859-1"?>
<!-- Uploaded to: SVG Repo, www.svgrepo.com, Generator: SVG Repo Mixer Tools -->
<svg fill="rgb(2468,113,113)" height="20px" width="20px" version="1.1" id="Layer_1" xmlns="http://www.w3.org/2000/svg" xmlns:xlink="http://www.w3.org/1999/xlink" 
	 viewBox="0 0 512 512" xml:space="preserve">
<g>
	<g>
		<path d="M507.168,69.511L442.488,4.831c-6.443-6.442-16.887-6.442-23.33,0L366.77,57.219c-6.684-6.167-15.309-9.55-24.455-9.55
			c-9.644,0-18.711,3.755-25.529,10.575l-99.859,99.859c-6.818,6.819-10.575,15.886-10.575,25.53s3.755,18.711,10.575,25.53
			l85.91,85.909c6.82,6.819,15.886,10.576,25.529,10.576c9.644,0,18.71-3.755,25.53-10.576l99.859-99.859
			c6.818-6.819,10.576-15.886,10.576-25.53c0-9.147-3.385-17.771-9.552-24.455l52.388-52.388
			C513.61,86.399,513.61,75.954,507.168,69.511z M408.14,175.696l-59.526,59.526c-4.433,4.433-11.621,4.433-16.055,0l-55.782-55.782
			c-4.433-4.433-4.433-11.621,0-16.055l59.526-59.526c4.433-4.433,11.621-4.433,16.055,0l55.782,55.782
			C412.573,164.075,412.573,171.263,408.14,175.696z"/>
	</g>
</g>
<g>
	<g>
		<path d="M264.17,301.45l-53.622-53.621c-4.598-4.598-10.711-7.13-17.213-7.13c-6.503,0-12.617,2.533-17.214,7.13l-34.487,34.487
			l-5.468-5.468c-5.072-5.073-11.818-7.867-18.994-7.867c-7.173,0-13.92,2.794-18.994,7.867l-46.473,46.473
			c-10.472,10.472-10.472,27.513,0,37.987l5.487,5.487L4.832,419.158c-6.442,6.443-6.442,16.888,0,23.33l64.681,64.681
			c6.443,6.443,16.887,6.443,23.33,0l52.362-52.363l5.488,5.488c5.073,5.072,11.818,7.866,18.991,7.867c0.001,0,0.001,0,0.002,0
			c7.173,0,13.919-2.795,18.993-7.868l46.473-46.473c10.472-10.473,10.472-27.513,0-37.986l-5.468-5.468l34.487-34.487
			C273.662,326.387,273.662,310.943,264.17,301.45z M191.732,394.196l-17.985,17.985c-4.433,4.433-11.621,4.433-16.055,0
			l-57.873-57.874c-4.433-4.433-4.433-11.621,0-16.055l17.985-17.985c4.433-4.433,11.621-4.433,16.055,0l57.873,57.873
			C196.166,382.574,196.166,389.762,191.732,394.196z M235.999,323.817l-15.112,15.112c-1.422,1.422-3.727,1.422-5.151,0
			l-42.668-42.668c-1.422-1.422-1.422-3.727,0-5.151l15.112-15.112c1.422-1.422,3.727-1.422,5.151,0l42.668,42.668
			C237.421,320.09,237.421,322.395,235.999,323.817z"/>
	</g>
</g>
</svg>